<mxfile host="app.diagrams.net" modified="2021-03-14T13:12:19.801Z" agent="5.0 (Windows NT 10.0; Win64; x64) AppleWebKit/537.36 (KHTML, like Gecko) Chrome/89.0.4389.82 Safari/537.36" etag="wEw3fPzEcQbFi2QxREBl" version="14.4.8" type="github">
  <diagram id="GtCJi55NrTxSH6r_MgJl" name="Page-1">
    <mxGraphModel dx="782" dy="437" grid="1" gridSize="10" guides="1" tooltips="1" connect="1" arrows="1" fold="1" page="1" pageScale="1" pageWidth="827" pageHeight="1169" math="0" shadow="0">
      <root>
        <mxCell id="0" />
        <mxCell id="1" parent="0" />
        <mxCell id="cWKhQ9bBEnF3WANWQqg7-1" value="Controller" style="html=1;" parent="1" vertex="1">
          <mxGeometry x="80" y="260" width="110" height="50" as="geometry" />
        </mxCell>
        <mxCell id="cWKhQ9bBEnF3WANWQqg7-2" value="t: Telepes" style="html=1;" parent="1" vertex="1">
          <mxGeometry x="370" y="140" width="110" height="50" as="geometry" />
        </mxCell>
        <mxCell id="cWKhQ9bBEnF3WANWQqg7-3" value="a: Aszteroida" style="html=1;" parent="1" vertex="1">
          <mxGeometry x="560" y="270" width="110" height="50" as="geometry" />
        </mxCell>
        <mxCell id="cWKhQ9bBEnF3WANWQqg7-4" value="v: Vas" style="html=1;" parent="1" vertex="1">
          <mxGeometry x="370" y="380" width="110" height="50" as="geometry" />
        </mxCell>
        <mxCell id="cWKhQ9bBEnF3WANWQqg7-5" value="" style="endArrow=none;html=1;entryX=0;entryY=0.5;entryDx=0;entryDy=0;exitX=1;exitY=0.5;exitDx=0;exitDy=0;" parent="1" source="cWKhQ9bBEnF3WANWQqg7-1" target="cWKhQ9bBEnF3WANWQqg7-2" edge="1">
          <mxGeometry width="50" height="50" relative="1" as="geometry">
            <mxPoint x="240" y="230" as="sourcePoint" />
            <mxPoint x="290" y="180" as="targetPoint" />
          </mxGeometry>
        </mxCell>
        <mxCell id="cWKhQ9bBEnF3WANWQqg7-6" value="" style="endArrow=none;html=1;exitX=1;exitY=0.5;exitDx=0;exitDy=0;entryX=0;entryY=0.5;entryDx=0;entryDy=0;" parent="1" source="cWKhQ9bBEnF3WANWQqg7-1" target="cWKhQ9bBEnF3WANWQqg7-3" edge="1">
          <mxGeometry width="50" height="50" relative="1" as="geometry">
            <mxPoint x="260" y="320" as="sourcePoint" />
            <mxPoint x="310" y="270" as="targetPoint" />
          </mxGeometry>
        </mxCell>
        <mxCell id="cWKhQ9bBEnF3WANWQqg7-7" value="" style="endArrow=none;html=1;exitX=0;exitY=0.5;exitDx=0;exitDy=0;" parent="1" source="cWKhQ9bBEnF3WANWQqg7-4" edge="1">
          <mxGeometry width="50" height="50" relative="1" as="geometry">
            <mxPoint x="140" y="340" as="sourcePoint" />
            <mxPoint x="190" y="290" as="targetPoint" />
          </mxGeometry>
        </mxCell>
        <mxCell id="cWKhQ9bBEnF3WANWQqg7-8" value="1. &amp;lt;&amp;lt;create&amp;gt;&amp;gt;Aszteroida()" style="html=1;verticalAlign=bottom;endArrow=block;" parent="1" edge="1">
          <mxGeometry width="80" relative="1" as="geometry">
            <mxPoint x="340" y="284.5" as="sourcePoint" />
            <mxPoint x="420" y="284.5" as="targetPoint" />
            <mxPoint as="offset" />
          </mxGeometry>
        </mxCell>
        <mxCell id="cWKhQ9bBEnF3WANWQqg7-9" value="2. &amp;lt;&amp;lt;create&amp;gt;&amp;gt; Telepes(a)" style="html=1;verticalAlign=bottom;endArrow=block;" parent="1" edge="1">
          <mxGeometry x="-0.6923" y="17" width="80" relative="1" as="geometry">
            <mxPoint x="210" y="250" as="sourcePoint" />
            <mxPoint x="270" y="210" as="targetPoint" />
            <mxPoint as="offset" />
          </mxGeometry>
        </mxCell>
        <mxCell id="cWKhQ9bBEnF3WANWQqg7-10" value="" style="endArrow=none;html=1;entryX=1;entryY=0.5;entryDx=0;entryDy=0;" parent="1" source="cWKhQ9bBEnF3WANWQqg7-3" target="cWKhQ9bBEnF3WANWQqg7-2" edge="1">
          <mxGeometry width="50" height="50" relative="1" as="geometry">
            <mxPoint x="570" y="250" as="sourcePoint" />
            <mxPoint x="620" y="200" as="targetPoint" />
          </mxGeometry>
        </mxCell>
        <mxCell id="cWKhQ9bBEnF3WANWQqg7-11" value="3. HajoErkezik(t)" style="html=1;verticalAlign=bottom;endArrow=block;" parent="1" edge="1">
          <mxGeometry x="0.8537" y="22" width="80" relative="1" as="geometry">
            <mxPoint x="530" y="200" as="sourcePoint" />
            <mxPoint x="580" y="240" as="targetPoint" />
            <mxPoint as="offset" />
          </mxGeometry>
        </mxCell>
        <mxCell id="cWKhQ9bBEnF3WANWQqg7-12" value="4. MezoBeallit(a)" style="html=1;verticalAlign=bottom;endArrow=block;" parent="1" edge="1">
          <mxGeometry x="0.04" y="32" width="80" relative="1" as="geometry">
            <mxPoint x="540" y="250" as="sourcePoint" />
            <mxPoint x="500" y="220" as="targetPoint" />
            <mxPoint as="offset" />
          </mxGeometry>
        </mxCell>
        <mxCell id="cWKhQ9bBEnF3WANWQqg7-13" value="5. &amp;lt;&amp;lt;create&amp;gt;&amp;gt; Vas()" style="html=1;verticalAlign=bottom;endArrow=block;" parent="1" edge="1">
          <mxGeometry x="0.4615" y="11" width="80" relative="1" as="geometry">
            <mxPoint x="270" y="330" as="sourcePoint" />
            <mxPoint x="330" y="370" as="targetPoint" />
            <mxPoint as="offset" />
          </mxGeometry>
        </mxCell>
        <mxCell id="EwOol-uLwARk7H9y83MP-1" value="" style="endArrow=classic;html=1;" parent="1" edge="1">
          <mxGeometry width="50" height="50" relative="1" as="geometry">
            <mxPoint x="280" y="200" as="sourcePoint" />
            <mxPoint x="340" y="160" as="targetPoint" />
          </mxGeometry>
        </mxCell>
        <mxCell id="EwOol-uLwARk7H9y83MP-2" value="6. AddRakter(v)" style="text;html=1;strokeColor=none;fillColor=none;align=center;verticalAlign=middle;whiteSpace=wrap;rounded=0;rotation=-30;" parent="1" vertex="1">
          <mxGeometry x="240" y="160" width="100" height="20" as="geometry" />
        </mxCell>
        <mxCell id="8xdgx17LIzWCUcE3d_7--1" value="telepes lerak vasat" style="shape=umlFrame;whiteSpace=wrap;html=1;width=70;height=30;" vertex="1" parent="1">
          <mxGeometry x="60" y="120" width="660" height="320" as="geometry" />
        </mxCell>
      </root>
    </mxGraphModel>
  </diagram>
</mxfile>
